<svg xmlns="http://www.w3.org/2000/svg" width="640" height="360" viewBox="0 0 640 360" role="img" aria-label="Sharing hub illustration">
  <defs>
    <linearGradient id="bg3" x1="0" y1="0" x2="1" y2="1">
      <stop offset="0%" stop-color="#FEF3C7"/>
      <stop offset="100%" stop-color="#FDE68A"/>
    </linearGradient>
  </defs>
  <rect width="640" height="360" rx="16" fill="url(#bg3)"/>
  <g fill="#111827" opacity="0.85">
    <path d="M160 128h176c14 0 24 10 24 24v44c0 14-10 24-24 24H212l-40 28v-28h-12c-14 0-24-10-24-24v-44c0-14 10-24 24-24z"/>
    <path d="M344 92h136c12 0 22 10 22 22v34c0 12-10 22-22 22h-36v22l-32-22h-68c-12 0-22-10-22-22v-34c0-12 10-22 22-22z" opacity="0.6"/>
  </g>
</svg>